<?xml version="1.0" encoding="UTF-8" standalone="no"?>
<!DOCTYPE svg PUBLIC "-//W3C//DTD SVG 1.1//EN"
 "http://www.w3.org/Graphics/SVG/1.1/DTD/svg11.dtd">
<!-- Generated by graphviz version 2.43.0 (0)
 -->
<!-- Title: opp Pages: 1 -->
<svg width="310pt" height="82pt"
 viewBox="0.00 0.00 309.50 82.00" xmlns="http://www.w3.org/2000/svg" xmlns:xlink="http://www.w3.org/1999/xlink">
<g id="graph0" class="graph" transform="scale(1 1) rotate(0) translate(4 78)">
<title>opp</title>
<polygon fill="transparent" stroke="transparent" points="-4,4 -4,-78 305.5,-78 305.5,4 -4,4"/>
<!-- testCQF -->
<g id="node1" class="node">
<title>testCQF</title>
<g id="a_node1"><a xlink:href="CQF.testCQF.html" xlink:title="Network testCQF" target="_parent">
<polygon fill="#9090ff" stroke="black" points="169.5,-74 113.5,-74 113.5,-55 169.5,-55 169.5,-74"/>
<text text-anchor="middle" x="141.5" y="-62" font-family="Helvetica,sans-Serif" font-size="10.00">testCQF</text>
</a>
</g>
</g>
<!-- TsnClock -->
<g id="node2" class="node">
<title>TsnClock</title>
<g id="a_node2"><a xlink:href="../../../inet/doc/neddoc/inet.node.tsn.TsnClock.html" xlink:title="Compound Module TsnClock" target="_parent">
<polygon fill="#fffcaf" stroke="black" points="59,-19 0,-19 0,0 59,0 59,-19"/>
<text text-anchor="middle" x="29.5" y="-7" font-family="Helvetica,sans-Serif" font-size="10.00">TsnClock</text>
</a>
</g>
</g>
<!-- testCQF&#45;&gt;TsnClock -->
<g id="edge1" class="edge">
<title>testCQF&#45;&gt;TsnClock</title>
<path fill="none" stroke="black" d="M123.51,-54.98C105.57,-46.5 77.78,-33.35 57.07,-23.54"/>
<polygon fill="black" stroke="black" points="58.36,-20.28 47.82,-19.17 55.36,-26.61 58.36,-20.28"/>
</g>
<!-- IEthernetNetworkNode -->
<g id="node3" class="node">
<title>IEthernetNetworkNode</title>
<g id="a_node3"><a xlink:href="../../../inet/doc/neddoc/inet.node.contract.IEthernetNetworkNode.html" xlink:title="Module Interface IEthernetNetworkNode" target="_parent">
<polygon fill="#fffcaf" stroke="black" stroke-dasharray="5,2" points="205.5,-19 77.5,-19 77.5,0 205.5,0 205.5,-19"/>
<text text-anchor="middle" x="141.5" y="-7" font-family="Helvetica,sans-Serif" font-size="10.00">IEthernetNetworkNode</text>
</a>
</g>
</g>
<!-- testCQF&#45;&gt;IEthernetNetworkNode -->
<g id="edge2" class="edge">
<title>testCQF&#45;&gt;IEthernetNetworkNode</title>
<path fill="none" stroke="black" d="M141.5,-54.75C141.5,-47.8 141.5,-37.85 141.5,-29.13"/>
<polygon fill="black" stroke="black" points="145,-29.09 141.5,-19.09 138,-29.09 145,-29.09"/>
</g>
<!-- EthernetLink -->
<g id="node4" class="node">
<title>EthernetLink</title>
<g id="a_node4"><a xlink:href="../../../inet/doc/neddoc/inet.node.ethernet.EthernetLink.html" xlink:title="Channel EthernetLink" target="_parent">
<polygon fill="#d0ffd0" stroke="black" points="301.5,-19 223.5,-19 223.5,0 301.5,0 301.5,-19"/>
<text text-anchor="middle" x="262.5" y="-7" font-family="Helvetica,sans-Serif" font-size="10.00">EthernetLink</text>
</a>
</g>
</g>
<!-- testCQF&#45;&gt;EthernetLink -->
<g id="edge3" class="edge">
<title>testCQF&#45;&gt;EthernetLink</title>
<path fill="none" stroke="black" d="M160.94,-54.98C180.49,-46.42 210.88,-33.11 233.32,-23.28"/>
<polygon fill="black" stroke="black" points="234.95,-26.39 242.71,-19.17 232.14,-19.98 234.95,-26.39"/>
</g>
</g>
</svg>
